<?xml version="1.0" encoding="UTF-8"?>
<svg id="Capa_1" xmlns="http://www.w3.org/2000/svg" version="1.1" viewBox="0 0 323.25 306.8">
  <!-- Generator: Adobe Illustrator 29.8.4, SVG Export Plug-In . SVG Version: 2.1.1 Build 6)  -->
  <path d="M196.39,265.51"/>
  <g>
    <g>
      <circle cx="126.81" cy="118.61" r="13.54"/>
      <circle cx="164.65" cy="118.61" r="13.54" transform="translate(21.2 262.13) rotate(-80.78)"/>
      <circle cx="88.92" cy="118.61" r="13.54"/>
    </g>
    <path d="M127.01,237.22c18.24,0,34.86-2.95,50.27-8.81s28.83-14.13,40.26-24.76,20.23-23.18,26.55-37.64c6.31-14.46,9.43-30.24,9.43-47.4s-3.16-33.24-9.43-47.57c-6.31-14.33-15.16-26.84-26.55-37.47s-24.8-18.9-40.26-24.76C161.87,2.95,145.04,0,126.76,0s-34.81,2.95-50.35,8.81-28.96,14.17-40.26,24.93c-11.3,10.76-20.15,23.31-26.55,37.64S0,101.46,0,118.62s3.2,32.65,9.6,47.07,15.25,27,26.51,37.72L0,237.19h126.96l.04.04h0ZM194.27,150.3c-3.74,9.56-8.89,17.74-15.45,24.55-6.56,6.85-14.29,12.05-23.18,15.66s-18.49,5.4-28.79,5.4-19.9-1.79-28.79-5.4-16.7-8.81-23.39-15.66c-6.69-6.81-11.84-15-15.45-24.55-3.61-9.51-5.4-20.11-5.4-31.7s1.79-22.14,5.4-31.7c3.61-9.51,8.77-17.74,15.45-24.55s14.5-12.05,23.39-15.66,18.49-5.4,28.79-5.4,19.9,1.83,28.79,5.4c8.89,3.61,16.62,8.85,23.18,15.66s11.72,15,15.45,24.55c3.74,9.56,5.61,20.11,5.61,31.7s-1.87,22.19-5.61,31.7h0Z"/>
  </g>
  <path d="M323.11,306.8l-36.1-33.78s-.08.08-.04.04c1.74-1.74,20.15-23.35,26.55-37.81s9.6-30.12,9.6-47.07-3.2-32.9-9.6-47.24-15.25-26.88-26.55-37.64c-6.27-5.98-13.21-11.18-20.77-15.66,2.16,9.76,3.28,20.11,3.28,30.91,0,13.54-1.74,26.34-5.23,38.39,3.49,9.43,5.23,19.82,5.23,31.2s-1.79,22.19-5.4,31.7c-3.61,9.56-8.77,17.74-15.45,24.55-6.69,6.85-14.5,12.05-23.39,15.66-8.89,3.61-18.49,5.4-28.79,5.4s-19.9-1.79-28.79-5.4c-6.07-2.45-11.59-5.69-16.58-9.64-7.81,1.08-15.87,1.66-24.22,1.66-14.75,0-28.79-1.74-42.04-5.23,5.61,9.8,12.59,18.61,20.9,26.38,11.38,10.64,24.8,18.9,40.26,24.76,15.41,5.86,32.24,8.81,50.52,8.81h126.75-.14Z"/>
</svg>