<?xml version="1.0" encoding="UTF-8"?>
<svg id="Capa_1" xmlns="http://www.w3.org/2000/svg" version="1.1" viewBox="0 0 401.21 73.85">
  <!-- Generator: Adobe Illustrator 29.8.4, SVG Export Plug-In . SVG Version: 2.1.1 Build 6)  -->
  <g>
    <path d="M113.54,50.15c0,2.28-.34,4.15-1.01,5.63s-1.62,2.55-2.83,3.22c-1.22.67-2.55,1.01-4,1.01-2.23,0-3.95-.71-5.16-2.14-1.22-1.42-1.82-3.77-1.82-7.03v-21.12h-14.75v23.53c0,4.45.76,8.11,2.29,10.99,1.53,2.87,3.65,4.98,6.37,6.33s5.78,2.02,9.2,2.02c3.21,0,6.17-.76,8.89-2.29,1.35-.76,2.56-1.72,3.61-2.87v4.46h13.98V29.73h-14.75v20.42h-.02Z"/>
    <path d="M171.27,31.82c-3.6-1.86-7.7-2.8-12.31-2.8s-8.7.93-12.27,2.8c-3.57,1.86-6.38,4.44-8.42,7.73-2.05,3.29-3.07,7.05-3.07,11.3s1.02,7.93,3.07,11.22c2.04,3.29,4.85,5.86,8.42,7.73,3.57,1.86,7.66,2.8,12.27,2.8s8.71-.93,12.31-2.8c3.6-1.86,6.42-4.44,8.46-7.73,2.04-3.29,3.07-7.03,3.07-11.22s-1.02-8.01-3.07-11.3c-2.05-3.29-4.87-5.86-8.46-7.73h0ZM166.61,56.24c-.8,1.53-1.86,2.68-3.18,3.46-1.32.78-2.81,1.16-4.46,1.16s-3.14-.39-4.46-1.16-2.38-1.93-3.18-3.46c-.8-1.53-1.2-3.35-1.2-5.47s.4-3.99,1.2-5.44,1.86-2.56,3.18-3.34c1.32-.78,2.81-1.16,4.46-1.16s3.14.39,4.46,1.16c1.32.78,2.38,1.89,3.18,3.34.8,1.45,1.2,3.26,1.2,5.44s-.4,3.95-1.2,5.47Z"/>
    <path d="M222.99,31.82c-3.6-1.86-7.7-2.8-12.31-2.8s-8.7.93-12.27,2.8c-3.57,1.86-6.38,4.44-8.42,7.73-2.05,3.29-3.07,7.05-3.07,11.3s1.02,7.93,3.07,11.22c2.04,3.29,4.85,5.86,8.42,7.73,3.57,1.86,7.66,2.8,12.27,2.8s8.71-.93,12.31-2.8c3.6-1.86,6.42-4.44,8.46-7.73,2.04-3.29,3.07-7.03,3.07-11.22s-1.02-8.01-3.07-11.3c-2.05-3.29-4.87-5.86-8.46-7.73h0ZM218.33,56.24c-.8,1.53-1.86,2.68-3.18,3.46s-2.81,1.16-4.46,1.16-3.14-.39-4.46-1.16c-1.32-.78-2.38-1.93-3.18-3.46s-1.2-3.35-1.2-5.47.4-3.99,1.2-5.44c.8-1.45,1.86-2.56,3.18-3.34s2.81-1.16,4.46-1.16,3.14.39,4.46,1.16c1.32.78,2.38,1.89,3.18,3.34.8,1.45,1.2,3.26,1.2,5.44s-.4,3.95-1.2,5.47Z"/>
    <path d="M255.4,34.82v-5.09h-14.13v42.16h14.75v-19.33c0-3.67.93-6.33,2.8-7.96,1.86-1.63,4.3-2.45,7.3-2.45.52,0,1.03.01,1.55.04s1.11.09,1.79.19v-13.36c-3.99,0-7.36.8-10.13,2.41-1.53.89-2.84,2.02-3.92,3.38h0Z"/>
    <path d="M305.09,50.15c0,2.28-.34,4.15-1.01,5.63s-1.62,2.55-2.83,3.22c-1.22.67-2.55,1.01-4,1.01-2.23,0-3.95-.71-5.16-2.14-1.22-1.42-1.82-3.77-1.82-7.03v-21.12h-14.75v23.53c0,4.45.76,8.11,2.29,10.99,1.53,2.87,3.65,4.98,6.37,6.33s5.78,2.02,9.2,2.02c3.21,0,6.17-.76,8.89-2.29,1.35-.76,2.56-1.72,3.61-2.87v4.46h13.98V29.73h-14.75v20.42h-.02Z"/>
    <path d="M399.01,37.18c-1.48-2.74-3.49-4.79-6.06-6.13-2.56-1.35-5.47-2.02-8.74-2.02-3.93,0-7.42.98-10.44,2.95-1.6,1.04-2.98,2.27-4.15,3.7-.96-1.52-2.15-2.77-3.57-3.74-2.85-1.94-6.19-2.91-10.02-2.91-3.31,0-6.32.78-9.01,2.33-1.31.75-2.47,1.68-3.49,2.77v-4.4h-14.13v42.16h14.75v-20.81c0-2.22.32-4.02.97-5.4.65-1.37,1.54-2.39,2.68-3.07,1.14-.67,2.41-1.01,3.8-1.01,2.02,0,3.58.69,4.7,2.06,1.11,1.37,1.67,3.56,1.67,6.56v21.66h14.75v-20.81c0-2.22.31-4.02.93-5.4.62-1.37,1.49-2.39,2.6-3.07,1.11-.67,2.39-1.01,3.84-1.01,1.97,0,3.52.69,4.66,2.06s1.71,3.56,1.71,6.56v21.66h14.75v-24.07c0-4.35-.74-7.89-2.21-10.64v.02Z"/>
  </g>
  <g>
    <path d="M47.27,63.91"/>
    <g>
      <g>
        <circle cx="30.52" cy="28.55" r="3.26"/>
        <circle cx="39.63" cy="28.55" r="3.26"/>
        <circle cx="21.4" cy="28.55" r="3.26"/>
      </g>
      <path d="M30.57,57.1c4.39,0,8.39-.71,12.1-2.12s6.94-3.4,9.69-5.96,4.87-5.58,6.39-9.06c1.52-3.48,2.27-7.28,2.27-11.41s-.76-8-2.27-11.45c-1.52-3.45-3.65-6.46-6.39-9.02s-5.97-4.55-9.69-5.96c-3.71-1.41-7.76-2.12-12.16-2.12s-8.38.71-12.12,2.12c-3.74,1.41-6.97,3.41-9.69,6s-4.85,5.61-6.39,9.06S0,24.42,0,28.55s.77,7.86,2.31,11.33,3.67,6.5,6.38,9.08L0,57.09h30.57ZM46.76,36.18c-.9,2.3-2.14,4.27-3.72,5.91-1.58,1.65-3.44,2.9-5.58,3.77s-4.45,1.3-6.93,1.3-4.79-.43-6.93-1.3-4.02-2.12-5.63-3.77c-1.61-1.64-2.85-3.61-3.72-5.91-.87-2.29-1.3-4.84-1.3-7.63s.43-5.33,1.3-7.63c.87-2.29,2.11-4.27,3.72-5.91s3.49-2.9,5.63-3.77c2.14-.87,4.45-1.3,6.93-1.3s4.79.44,6.93,1.3c2.14.87,4,2.13,5.58,3.77s2.82,3.61,3.72,5.91,1.35,4.84,1.35,7.63-.45,5.34-1.35,7.63h0Z"/>
    </g>
    <path d="M77.77,73.85l-8.69-8.13s-.02.02-.01.01c.42-.42,4.85-5.62,6.39-9.1,1.54-3.48,2.31-7.25,2.31-11.33s-.77-7.92-2.31-11.37-3.67-6.47-6.39-9.06c-1.51-1.44-3.18-2.69-5-3.77.52,2.35.79,4.84.79,7.44,0,3.26-.42,6.34-1.26,9.24.84,2.27,1.26,4.77,1.26,7.51s-.43,5.34-1.3,7.63c-.87,2.3-2.11,4.27-3.72,5.91-1.61,1.65-3.49,2.9-5.63,3.77s-4.45,1.3-6.93,1.3-4.79-.43-6.93-1.3c-1.46-.59-2.79-1.37-3.99-2.32-1.88.26-3.82.4-5.83.4-3.55,0-6.93-.42-10.12-1.26,1.35,2.36,3.03,4.48,5.03,6.35,2.74,2.56,5.97,4.55,9.69,5.96,3.71,1.41,7.76,2.12,12.16,2.12h30.51-.03Z"/>
  </g>
</svg>