<?xml version="1.0" encoding="UTF-8"?>
<svg id="quoorum-imagotipo" xmlns="http://www.w3.org/2000/svg" version="1.1" viewBox="0 0 512 512">
  <!-- Imagotipo de Quoorum - Solo símbolo (sin texto) -->
  <g>
    <path d="M103.05,282.5"/>
    <g>
      <g>
        <circle cx="86.3" cy="247.14" r="3.26"/>
        <circle cx="95.41" cy="247.14" r="3.26"/>
        <circle cx="77.18" cy="247.14" r="3.26"/>
      </g>
      <path d="M86.35,275.69c4.39,0,8.39-.71,12.1-2.12,3.71-1.41,6.94-3.4,9.69-5.96,2.75-2.56,4.87-5.58,6.39-9.06,1.52-3.48,2.27-7.28,2.27-11.41s-.76-8-2.27-11.45c-1.52-3.45-3.65-6.46-6.39-9.02-2.74-2.56-5.97-4.55-9.69-5.96-3.71-1.41-7.76-2.12-12.16-2.12s-8.38.71-12.12,2.12c-3.74,1.41-6.97,3.41-9.69,6-2.72,2.59-4.85,5.61-6.39,9.06-1.54,3.45-2.31,7.24-2.31,11.37s.77,7.86,2.31,11.33c1.54,3.47,3.67,6.5,6.38,9.08l-8.69,8.13h30.56ZM102.54,254.77c-.9,2.3-2.14,4.27-3.72,5.91-1.58,1.65-3.44,2.9-5.58,3.77-2.14.87-4.45,1.3-6.93,1.3s-4.79-.43-6.93-1.3c-2.14-.87-4.02-2.12-5.63-3.77-1.61-1.64-2.85-3.61-3.72-5.91-.87-2.29-1.3-4.84-1.3-7.63s.43-5.33,1.3-7.63c.87-2.29,2.11-4.27,3.72-5.91,1.61-1.64,3.49-2.9,5.63-3.77,2.14-.87,4.45-1.3,6.93-1.3s4.79.44,6.93,1.3c2.14.87,4,2.13,5.58,3.77,1.58,1.64,2.82,3.61,3.72,5.91.9,2.3,1.35,4.84,1.35,7.63s-.45,5.34-1.35,7.63Z"/>
    </g>
    <path d="M133.55,292.44l-8.69-8.13s-.02.02-.01.01c.42-.42,4.85-5.62,6.39-9.1,1.54-3.48,2.31-7.25,2.31-11.33s-.77-7.92-2.31-11.37c-1.54-3.45-3.67-6.47-6.39-9.06-1.51-1.44-3.18-2.69-5-3.77.52,2.35.79,4.84.79,7.44,0,3.26-.42,6.34-1.26,9.24.84,2.27,1.26,4.77,1.26,7.51s-.43,5.34-1.3,7.63c-.87,2.3-2.11,4.27-3.72,5.91-1.61,1.65-3.49,2.9-5.63,3.77-2.14.87-4.45,1.3-6.93,1.3s-4.79-.43-6.93-1.3c-1.46-.59-2.79-1.37-3.99-2.32-1.88.26-3.82.4-5.83.4-3.55,0-6.93-.42-10.12-1.26,1.35,2.36,3.03,4.48,5.03,6.35,2.74,2.56,5.97,4.55,9.69,5.96,3.71,1.41,7.76,2.12,12.16,2.12h30.51Z"/>
  </g>
</svg>
